<mxfile host="app.diagrams.net" modified="2024-04-10T17:39:00.775Z" agent="Mozilla/5.0 (Windows NT 10.0; Win64; x64) AppleWebKit/537.36 (KHTML, like Gecko) Chrome/123.0.0.0 Safari/537.36" version="24.2.3" etag="pVNksghGlh551Ho-BiPK" type="github">
  <diagram name="PÃ¡gina-1" id="eedE-8vt8fwJeMrb7Yjk">
    <mxGraphModel>
      <root>
        <mxCell id="0" />
        <mxCell id="1" parent="0" />
      </root>
    </mxGraphModel>
  </diagram>
</mxfile>
